<mxfile host="app.diagrams.net" modified="2023-11-22T10:10:46.507Z" agent="Mozilla/5.0 (Macintosh; Intel Mac OS X 10.15; rv:120.0) Gecko/20100101 Firefox/120.0" etag="ud89vSpxX46gxcl-K2Bd" version="22.1.3" type="device">
  <diagram name="Page-1" id="bZaYXTWRJZsOZcoYcKRH">
    <mxGraphModel dx="1306" dy="751" grid="1" gridSize="10" guides="1" tooltips="1" connect="1" arrows="1" fold="1" page="1" pageScale="1" pageWidth="1654" pageHeight="2336" math="0" shadow="0">
      <root>
        <mxCell id="0" />
        <mxCell id="1" parent="0" />
        <mxCell id="Ti21j8jLe_4GlnTRmD-S-1" value="&lt;font style=&quot;font-size: 18px;&quot;&gt;Initiated&lt;/font&gt;" style="rounded=1;whiteSpace=wrap;html=1;" vertex="1" parent="1">
          <mxGeometry x="340" y="180" width="120" height="60" as="geometry" />
        </mxCell>
        <mxCell id="Ti21j8jLe_4GlnTRmD-S-4" value="" style="endArrow=none;html=1;rounded=0;exitX=0;exitY=0.75;exitDx=0;exitDy=0;entryX=1;entryY=0.75;entryDx=0;entryDy=0;" edge="1" parent="1" source="Ti21j8jLe_4GlnTRmD-S-1" target="Ti21j8jLe_4GlnTRmD-S-1">
          <mxGeometry width="50" height="50" relative="1" as="geometry">
            <mxPoint x="640" y="410" as="sourcePoint" />
            <mxPoint x="690" y="360" as="targetPoint" />
          </mxGeometry>
        </mxCell>
        <mxCell id="Ti21j8jLe_4GlnTRmD-S-5" value="&lt;font style=&quot;font-size: 18px;&quot;&gt;Failed&lt;/font&gt;" style="rounded=1;whiteSpace=wrap;html=1;" vertex="1" parent="1">
          <mxGeometry x="640" y="440" width="120" height="60" as="geometry" />
        </mxCell>
        <mxCell id="Ti21j8jLe_4GlnTRmD-S-6" value="" style="endArrow=none;html=1;rounded=0;exitX=0;exitY=0.75;exitDx=0;exitDy=0;entryX=1;entryY=0.75;entryDx=0;entryDy=0;" edge="1" parent="1" source="Ti21j8jLe_4GlnTRmD-S-5" target="Ti21j8jLe_4GlnTRmD-S-5">
          <mxGeometry width="50" height="50" relative="1" as="geometry">
            <mxPoint x="650" y="420" as="sourcePoint" />
            <mxPoint x="700" y="370" as="targetPoint" />
          </mxGeometry>
        </mxCell>
        <mxCell id="Ti21j8jLe_4GlnTRmD-S-7" value="&lt;font style=&quot;font-size: 18px;&quot;&gt;Successful&lt;/font&gt;" style="rounded=1;whiteSpace=wrap;html=1;" vertex="1" parent="1">
          <mxGeometry x="640" y="220" width="120" height="60" as="geometry" />
        </mxCell>
        <mxCell id="Ti21j8jLe_4GlnTRmD-S-8" value="" style="endArrow=none;html=1;rounded=0;exitX=0;exitY=0.75;exitDx=0;exitDy=0;entryX=1;entryY=0.75;entryDx=0;entryDy=0;" edge="1" parent="1" source="Ti21j8jLe_4GlnTRmD-S-7" target="Ti21j8jLe_4GlnTRmD-S-7">
          <mxGeometry width="50" height="50" relative="1" as="geometry">
            <mxPoint x="660" y="430" as="sourcePoint" />
            <mxPoint x="710" y="380" as="targetPoint" />
          </mxGeometry>
        </mxCell>
        <mxCell id="Ti21j8jLe_4GlnTRmD-S-9" value="&lt;font style=&quot;font-size: 18px;&quot;&gt;Processing&lt;/font&gt;" style="rounded=1;whiteSpace=wrap;html=1;" vertex="1" parent="1">
          <mxGeometry x="340" y="330" width="120" height="60" as="geometry" />
        </mxCell>
        <mxCell id="Ti21j8jLe_4GlnTRmD-S-10" value="" style="endArrow=none;html=1;rounded=0;exitX=0;exitY=0.75;exitDx=0;exitDy=0;entryX=1;entryY=0.75;entryDx=0;entryDy=0;" edge="1" parent="1" source="Ti21j8jLe_4GlnTRmD-S-9" target="Ti21j8jLe_4GlnTRmD-S-9">
          <mxGeometry width="50" height="50" relative="1" as="geometry">
            <mxPoint x="670" y="440" as="sourcePoint" />
            <mxPoint x="720" y="390" as="targetPoint" />
          </mxGeometry>
        </mxCell>
        <mxCell id="Ti21j8jLe_4GlnTRmD-S-17" value="&lt;font style=&quot;font-size: 18px;&quot;&gt;Refunded&lt;/font&gt;" style="rounded=1;whiteSpace=wrap;html=1;" vertex="1" parent="1">
          <mxGeometry x="640" y="80" width="120" height="60" as="geometry" />
        </mxCell>
        <mxCell id="Ti21j8jLe_4GlnTRmD-S-18" value="" style="endArrow=none;html=1;rounded=0;exitX=0;exitY=0.75;exitDx=0;exitDy=0;entryX=1;entryY=0.75;entryDx=0;entryDy=0;" edge="1" parent="1" source="Ti21j8jLe_4GlnTRmD-S-17" target="Ti21j8jLe_4GlnTRmD-S-17">
          <mxGeometry width="50" height="50" relative="1" as="geometry">
            <mxPoint x="710" y="480" as="sourcePoint" />
            <mxPoint x="760" y="430" as="targetPoint" />
          </mxGeometry>
        </mxCell>
        <mxCell id="Ti21j8jLe_4GlnTRmD-S-19" value="" style="shape=waypoint;sketch=0;fillStyle=solid;size=6;pointerEvents=1;points=[];fillColor=none;resizable=0;rotatable=0;perimeter=centerPerimeter;snapToPoint=1;strokeWidth=5;" vertex="1" parent="1">
          <mxGeometry x="390" y="70" width="20" height="20" as="geometry" />
        </mxCell>
        <mxCell id="Ti21j8jLe_4GlnTRmD-S-20" value="" style="endArrow=classic;html=1;rounded=0;exitX=0.4;exitY=1.1;exitDx=0;exitDy=0;exitPerimeter=0;entryX=0.5;entryY=0;entryDx=0;entryDy=0;" edge="1" parent="1" source="Ti21j8jLe_4GlnTRmD-S-19" target="Ti21j8jLe_4GlnTRmD-S-1">
          <mxGeometry width="50" height="50" relative="1" as="geometry">
            <mxPoint x="470" y="110" as="sourcePoint" />
            <mxPoint x="520" y="60" as="targetPoint" />
          </mxGeometry>
        </mxCell>
        <mxCell id="Ti21j8jLe_4GlnTRmD-S-21" value="" style="endArrow=classic;html=1;rounded=0;exitX=0.5;exitY=1;exitDx=0;exitDy=0;entryX=0.5;entryY=0;entryDx=0;entryDy=0;" edge="1" parent="1" source="Ti21j8jLe_4GlnTRmD-S-1" target="Ti21j8jLe_4GlnTRmD-S-9">
          <mxGeometry width="50" height="50" relative="1" as="geometry">
            <mxPoint x="410" y="90" as="sourcePoint" />
            <mxPoint x="410" y="190" as="targetPoint" />
          </mxGeometry>
        </mxCell>
        <mxCell id="Ti21j8jLe_4GlnTRmD-S-22" value="&lt;font style=&quot;font-size: 18px;&quot;&gt;payment process starts&lt;/font&gt;" style="text;html=1;strokeColor=none;fillColor=none;align=center;verticalAlign=middle;whiteSpace=wrap;rounded=0;" vertex="1" parent="1">
          <mxGeometry x="200" y="270" width="200" height="30" as="geometry" />
        </mxCell>
        <mxCell id="Ti21j8jLe_4GlnTRmD-S-23" value="" style="curved=1;endArrow=classic;html=1;rounded=0;entryX=0;entryY=0.5;entryDx=0;entryDy=0;exitX=1;exitY=0.25;exitDx=0;exitDy=0;" edge="1" parent="1" source="Ti21j8jLe_4GlnTRmD-S-9" target="Ti21j8jLe_4GlnTRmD-S-7">
          <mxGeometry width="50" height="50" relative="1" as="geometry">
            <mxPoint x="460" y="330" as="sourcePoint" />
            <mxPoint x="690" y="360" as="targetPoint" />
            <Array as="points">
              <mxPoint x="510" y="270" />
            </Array>
          </mxGeometry>
        </mxCell>
        <mxCell id="Ti21j8jLe_4GlnTRmD-S-24" value="" style="curved=1;endArrow=classic;html=1;rounded=0;entryX=0;entryY=0.5;entryDx=0;entryDy=0;exitX=1;exitY=0.75;exitDx=0;exitDy=0;" edge="1" parent="1" source="Ti21j8jLe_4GlnTRmD-S-9" target="Ti21j8jLe_4GlnTRmD-S-5">
          <mxGeometry width="50" height="50" relative="1" as="geometry">
            <mxPoint x="460" y="440" as="sourcePoint" />
            <mxPoint x="600" y="345" as="targetPoint" />
            <Array as="points">
              <mxPoint x="480" y="430" />
            </Array>
          </mxGeometry>
        </mxCell>
        <mxCell id="Ti21j8jLe_4GlnTRmD-S-25" value="&lt;div&gt;&lt;font style=&quot;font-size: 18px;&quot;&gt;payment authorized&lt;/font&gt;&lt;/div&gt;" style="text;whiteSpace=wrap;html=1;" vertex="1" parent="1">
          <mxGeometry x="510" y="290" width="220" height="50" as="geometry" />
        </mxCell>
        <mxCell id="Ti21j8jLe_4GlnTRmD-S-26" value="&lt;div&gt;&lt;font style=&quot;font-size: 18px;&quot;&gt;payment is declined&lt;/font&gt;&lt;/div&gt;" style="text;whiteSpace=wrap;html=1;" vertex="1" parent="1">
          <mxGeometry x="510" y="390" width="220" height="50" as="geometry" />
        </mxCell>
        <mxCell id="Ti21j8jLe_4GlnTRmD-S-27" value="&lt;div style=&quot;font-size: 18px;&quot;&gt;User requests a refund and approved&lt;br&gt;&lt;/div&gt;" style="text;whiteSpace=wrap;html=1;" vertex="1" parent="1">
          <mxGeometry x="710" y="170" width="320" height="50" as="geometry" />
        </mxCell>
        <mxCell id="Ti21j8jLe_4GlnTRmD-S-28" value="" style="endArrow=classic;html=1;rounded=0;entryX=0.5;entryY=1;entryDx=0;entryDy=0;exitX=0.5;exitY=0;exitDx=0;exitDy=0;" edge="1" parent="1" source="Ti21j8jLe_4GlnTRmD-S-7" target="Ti21j8jLe_4GlnTRmD-S-17">
          <mxGeometry width="50" height="50" relative="1" as="geometry">
            <mxPoint x="640" y="410" as="sourcePoint" />
            <mxPoint x="690" y="360" as="targetPoint" />
          </mxGeometry>
        </mxCell>
      </root>
    </mxGraphModel>
  </diagram>
</mxfile>
